<?xml version="1.0" encoding="UTF-8" standalone="no"?>
<svg
   xmlns:dc="http://purl.org/dc/elements/1.1/"
   xmlns:cc="http://creativecommons.org/ns#"
   xmlns:rdf="http://www.w3.org/1999/02/22-rdf-syntax-ns#"
   xmlns:svg="http://www.w3.org/2000/svg"
   xmlns="http://www.w3.org/2000/svg"
   xmlns:xlink="http://www.w3.org/1999/xlink"
   version="1.0"
   width="800.000000pt"
   height="150.000000pt"
   viewBox="0 0 800.000000 150.000000"
   preserveAspectRatio="xMidYMid meet"
   id="svg66">
  <metadata
     id="metadata72">
    <rdf:RDF>
      <cc:Work
         rdf:about="">
        <dc:format>image/svg+xml</dc:format>
        <dc:type
           rdf:resource="http://purl.org/dc/dcmitype/StillImage" />
        <dc:title></dc:title>
      </cc:Work>
    </rdf:RDF>
  </metadata>
  <defs
     id="defs70">
    <linearGradient
       id="linearGradient2831">
      <stop
         style="stop-color:#000000;stop-opacity:1;"
         offset="0"
         id="stop2827" />
      <stop
         style="stop-color:#000000;stop-opacity:0;"
         offset="1"
         id="stop2829" />
    </linearGradient>
    <linearGradient
       xlink:href="#linearGradient2831"
       id="linearGradient2833"
       x1="651.03487"
       y1="-762.57319"
       x2="7308.5709"
       y2="-762.57319"
       gradientUnits="userSpaceOnUse" />
  </defs>
  <g
     transform="translate(0.000000,150.000000) scale(0.100000,-0.100000)"
     fill="#000000"
     stroke="none"
     id="g64">
    <g
       aria-label="robertHare"
       transform="scale(1,-1)"
       id="text2939"
       style="font-size:1247.52px;line-height:1.25;font-family:sans-serif;-inkscape-font-specification:'sans-serif, Normal';stroke-width:7.5">
      <path
         d="m 962.9232,-919.03895 h 145.9598 l -1.2475,162.1776 -16.2177,-9.98016 q 4.99,-38.67312 21.2078,-68.6136 17.4653,-29.94048 42.4157,-52.39584 26.1979,-22.45536 56.1384,-33.68304 31.188,-11.22768 63.6235,-11.22768 48.6533,0 87.3264,16.21776 39.9206,14.97024 73.6037,49.9008 l -59.881,118.5144 -3.7425,9.98017 -11.2277,-4.99009 q -3.7426,-9.98016 -7.4851,-19.96032 -3.7426,-11.22768 -18.7128,-24.9504 -17.4653,-13.72272 -37.4256,-21.20784 -18.7128,-7.48512 -41.1682,-7.48512 -29.9405,0 -57.3859,9.98016 -27.4455,9.98016 -48.6533,31.188 -19.9603,21.20784 -32.4355,54.89089 -11.2277,32.43552 -11.2277,77.34624 v 304.39488 H 962.9232 Z"
         style="font-style:normal;font-variant:normal;font-weight:bold;font-stretch:normal;font-family:Inconsolata;-inkscape-font-specification:'Inconsolata Bold';stroke-width:7.5"
         id="path2941" />
      <path
         d="m 1786.284,-326.46694 q -77.3462,0 -140.9697,-37.4256 -62.376,-38.67312 -98.5541,-107.28672 -36.1781,-68.6136 -36.1781,-158.43504 0,-86.07888 36.1781,-154.69249 36.1781,-68.6136 98.5541,-108.53424 63.6235,-39.92064 140.9697,-39.92064 78.5938,0 140.9698,39.92064 63.6235,39.92064 99.8016,108.53424 37.4256,68.61361 37.4256,154.69249 0,89.82144 -37.4256,158.43504 -36.1781,68.6136 -99.8016,107.28672 -62.376,37.4256 -140.9698,37.4256 z m 0,-112.2768 q 41.1682,0 71.1087,-23.70288 29.9405,-24.9504 47.4057,-67.36608 18.7128,-43.6632 18.7128,-99.8016 0,-58.63344 -18.7128,-101.04912 -17.4652,-42.41569 -47.4057,-64.87105 -29.9405,-23.70288 -71.1087,-23.70288 -37.4256,0 -68.6136,23.70288 -29.9404,22.45536 -48.6532,64.87105 -17.4653,42.41568 -17.4653,101.04912 0,56.1384 17.4653,99.8016 17.4652,42.41568 47.4057,67.36608 31.188,23.70288 69.8611,23.70288 z"
         style="font-style:normal;font-variant:normal;font-weight:bold;font-stretch:normal;font-family:Inconsolata;-inkscape-font-specification:'Inconsolata Bold';stroke-width:7.5"
         id="path2943" />
      <path
         d="m 2447.4673,-323.9719 q -31.188,0 -59.881,-8.73264 -28.693,-8.73264 -53.6434,-26.19792 -23.7028,-18.7128 -43.6632,-43.6632 l -23.7028,63.62352 h -107.2868 v -837.08596 h 140.9698 12.4752 v 11.2277 q -7.4851,7.4851 -9.9802,16.2178 -1.2475,8.7326 -1.2475,29.9404 v 264.47429 q 13.7227,-17.46528 29.9405,-32.43552 16.2178,-14.97024 36.1781,-24.9504 19.9603,-11.22768 41.1681,-16.21776 22.4554,-4.99008 44.9108,-4.99008 53.6433,0 96.059,18.7128 43.6632,18.7128 73.6037,56.1384 31.188,36.17808 47.4057,91.06896 17.4653,54.89089 17.4653,128.49457 0,79.84128 -19.9603,139.72224 -18.7128,58.63344 -52.3958,97.30656 -33.6831,38.67312 -77.3463,58.63344 -42.4157,18.7128 -91.0689,18.7128 z m -28.693,-109.78176 q 26.1979,0 49.9008,-9.98016 23.7029,-11.22768 41.1682,-33.68304 17.4652,-22.45536 27.4454,-58.63344 9.9802,-37.4256 9.9802,-89.82144 0,-47.40576 -8.7327,-84.83136 -8.7326,-37.42561 -24.9504,-62.37601 -16.2177,-26.19792 -39.9206,-39.92064 -22.4554,-13.72272 -52.3959,-13.72272 -36.178,0 -63.6235,23.70288 -26.1979,22.45536 -39.9206,66.11857 -13.7227,43.6632 -14.9703,104.79168 0,47.40576 6.2376,84.83136 7.4852,36.17808 21.2079,62.376 14.9702,24.9504 36.1781,38.67312 22.4553,12.4752 52.3958,12.4752 z"
         style="font-style:normal;font-variant:normal;font-weight:bold;font-stretch:normal;font-family:Inconsolata;-inkscape-font-specification:'Inconsolata Bold';stroke-width:7.5"
         id="path2945" />
      <path
         d="m 3061.2448,-325.21942 q -62.376,0 -116.0194,-19.96032 -52.3958,-19.96032 -92.3164,-57.38592 -38.6732,-38.67312 -59.881,-94.81152 -21.2078,-56.1384 -21.2078,-127.24704 0,-72.35616 21.2078,-129.74209 21.2078,-57.38592 57.3859,-97.30656 37.4256,-39.92064 87.3264,-59.88096 49.9008,-21.20784 107.2867,-21.20784 51.1484,0 96.0591,17.46528 44.9107,17.46528 78.5937,53.64336 34.9306,34.93056 54.8909,88.57392 19.9603,52.39585 19.9603,122.25697 0,12.4752 -1.2475,29.94048 0,17.46528 -1.2475,29.94048 h -384.2362 q 2.4951,41.16816 16.2178,71.10864 13.7227,28.69296 36.1781,47.40576 22.4553,18.7128 49.9008,28.69296 27.4454,8.73264 57.3859,8.73264 26.1979,0 49.9008,-4.99008 24.9504,-4.99008 46.1582,-17.46528 22.4554,-12.4752 42.4157,-32.43552 l 72.3562,69.86112 q -27.4455,32.43552 -62.376,54.89088 -33.6831,21.20784 -73.6037,29.94048 -38.6731,9.98016 -81.0888,9.98016 z m -150.9499,-371.76096 h 247.0089 q 0,-29.94048 -8.7326,-53.64337 -7.4851,-23.70288 -22.4554,-39.92064 -14.9702,-16.21776 -37.4256,-23.70288 -21.2078,-8.73264 -49.9008,-8.73264 -23.7028,0 -46.1582,7.48512 -21.2078,6.2376 -38.6731,22.45536 -17.4653,16.21776 -28.693,39.92064 -11.2277,23.70289 -14.9702,56.13841 z"
         style="font-style:normal;font-variant:normal;font-weight:bold;font-stretch:normal;font-family:Inconsolata;-inkscape-font-specification:'Inconsolata Bold';stroke-width:7.5"
         id="path2947" />
      <path
         d="m 3457.9537,-919.03895 h 145.9599 l -1.2476,162.1776 -16.2177,-9.98016 q 4.9901,-38.67312 21.2078,-68.6136 17.4653,-29.94048 42.4157,-52.39584 26.1979,-22.45536 56.1384,-33.68304 31.188,-11.22768 63.6235,-11.22768 48.6533,0 87.3264,16.21776 39.9207,14.97024 73.6037,49.9008 l -59.881,118.5144 -3.7425,9.98017 -11.2277,-4.99009 q -3.7426,-9.98016 -7.4851,-19.96032 -3.7426,-11.22768 -18.7128,-24.9504 -17.4653,-13.72272 -37.4256,-21.20784 -18.7128,-7.48512 -41.1682,-7.48512 -29.9405,0 -57.3859,9.98016 -27.4454,9.98016 -48.6533,31.188 -19.9603,21.20784 -32.4355,54.89089 -11.2277,32.43552 -11.2277,77.34624 v 304.39488 h -143.4648 z"
         style="font-style:normal;font-variant:normal;font-weight:bold;font-stretch:normal;font-family:Inconsolata;-inkscape-font-specification:'Inconsolata Bold';stroke-width:7.5"
         id="path2949" />
      <path
         d="m 4343.6905,-326.46694 q -49.9008,0 -87.3264,-16.21776 -36.1781,-16.21776 -61.1285,-52.39584 -23.7029,-36.17808 -34.9306,-96.05904 -9.9801,-59.88096 -6.2376,-148.45488 l 16.2178,-416.67164 145.9599,-18.7129 11.2276,-1.2475 1.2476,11.2277 q -4.9901,8.7327 -9.9802,17.4653 -4.9901,8.7326 -6.2376,29.9405 l -13.7227,172.15773 6.2376,8.73264 -9.9802,194.61313 q -3.7425,81.0888 4.9901,125.99952 9.9802,43.6632 28.693,59.88096 19.9603,16.21776 47.4057,16.21776 39.9207,0 71.1087,-16.21776 32.4355,-16.21776 59.8809,-37.4256 l 29.9405,102.29664 q -42.4157,31.188 -91.069,48.65328 -47.4057,16.21776 -102.2966,16.21776 z m -299.4048,-592.57201 h 446.6122 l -1.2476,111.02928 h -447.8597 z"
         style="font-style:normal;font-variant:normal;font-weight:bold;font-stretch:normal;font-family:Inconsolata;-inkscape-font-specification:'Inconsolata Bold';stroke-width:7.5"
         id="path2951" />
      <path
         d="m 4641.8456,-1116.1471 h 140.9697 12.4752 v 11.2277 q -7.4851,7.4851 -9.9801,16.2177 -1.2475,8.7327 -1.2475,29.9405 v 258.23665 h 239.5238 v -315.62255 h 142.2173 11.2277 v 11.2277 q -7.4852,7.4851 -8.7327,16.2177 -1.2475,8.7327 -1.2475,29.9405 v 719.81906 h -143.4648 v -349.3056 h -239.5238 v 349.3056 h -142.2173 z"
         style="font-style:normal;font-variant:normal;font-weight:bold;font-stretch:normal;font-family:Inconsolata;-inkscape-font-specification:'Inconsolata Bold';stroke-width:7.5"
         id="path2953" />
      <path
         d="m 5465.2061,-323.9719 q -96.059,0 -149.7024,-44.91072 -52.3958,-46.15824 -52.3958,-118.5144 0,-46.15824 19.9603,-84.83136 21.2078,-39.92064 62.376,-68.6136 41.1681,-28.69296 102.2966,-43.6632 61.1285,-16.21776 139.7223,-16.21776 9.9801,0 24.9504,0 14.9702,0 32.4355,1.24752 17.4653,0 32.4355,2.49504 l 3.7426,97.30656 q -12.4752,-1.24752 -29.9405,-1.24752 -17.4653,-1.24752 -36.1781,-1.24752 -17.4653,-1.24752 -29.9405,-1.24752 -49.9008,0 -84.8313,7.48512 -33.6831,7.48512 -54.8909,21.20784 -21.2079,12.4752 -31.188,31.188 -9.9802,17.46528 -9.9802,38.67312 0,19.96032 6.2376,33.68304 7.4851,13.72272 18.7128,22.45536 12.4752,7.48512 28.693,11.22768 16.2177,3.74256 34.9305,3.74256 37.4256,0 64.8711,-11.22768 28.6929,-12.4752 47.4057,-38.67312 19.9604,-26.19792 28.693,-64.87104 9.9802,-39.92064 9.9802,-93.564 0,-72.35616 -14.9703,-111.02929 -14.9702,-38.67312 -43.6632,-53.64336 -28.6929,-16.21776 -72.3561,-16.21776 -39.9207,0 -76.0988,13.72272 -34.9305,12.4752 -68.6136,47.40576 l -77.3462,-84.83136 q 48.6533,-46.15824 108.5342,-66.11856 59.881,-19.96032 119.762,-19.96032 54.8908,0 102.2966,12.4752 47.4058,12.4752 82.3363,42.41568 36.1781,28.69296 56.1384,79.84128 21.2079,49.9008 21.2079,124.75201 v 334.33536 h -145.9599 v -62.376 q -16.2177,21.20784 -34.9305,36.17808 -18.7128,14.97024 -39.9207,23.70288 -21.2078,8.73264 -44.9107,12.4752 -23.7029,4.99008 -49.9008,4.99008 z"
         style="font-style:normal;font-variant:normal;font-weight:bold;font-stretch:normal;font-family:Inconsolata;-inkscape-font-specification:'Inconsolata Bold';stroke-width:7.5"
         id="path2955" />
      <path
         d="m 5952.9842,-919.03895 h 145.9599 l -1.2475,162.1776 -16.2178,-9.98016 q 4.9901,-38.67312 21.2078,-68.6136 17.4653,-29.94048 42.4157,-52.39584 26.1979,-22.45536 56.1384,-33.68304 31.188,-11.22768 63.6235,-11.22768 48.6533,0 87.3264,16.21776 39.9207,14.97024 73.6037,49.9008 l -59.8809,118.5144 -3.7426,9.98017 -11.2277,-4.99009 q -3.7425,-9.98016 -7.4851,-19.96032 -3.7426,-11.22768 -18.7128,-24.9504 -17.4653,-13.72272 -37.4256,-21.20784 -18.7128,-7.48512 -41.1682,-7.48512 -29.9404,0 -57.3859,9.98016 -27.4454,9.98016 -48.6533,31.188 -19.9603,21.20784 -32.4355,54.89089 -11.2277,32.43552 -11.2277,77.34624 v 304.39488 h -143.4648 z"
         style="font-style:normal;font-variant:normal;font-weight:bold;font-stretch:normal;font-family:Inconsolata;-inkscape-font-specification:'Inconsolata Bold';stroke-width:7.5"
         id="path2957" />
      <path
         d="m 6803.7907,-325.21942 q -62.376,0 -116.0194,-19.96032 -52.3958,-19.96032 -92.3164,-57.38592 -38.6732,-38.67312 -59.881,-94.81152 -21.2079,-56.1384 -21.2079,-127.24704 0,-72.35616 21.2079,-129.74209 21.2078,-57.38592 57.3859,-97.30656 37.4256,-39.92064 87.3264,-59.88096 49.9008,-21.20784 107.2867,-21.20784 51.1484,0 96.0591,17.46528 44.9107,17.46528 78.5937,53.64336 34.9306,34.93056 54.8909,88.57392 19.9603,52.39585 19.9603,122.25697 0,12.4752 -1.2475,29.94048 0,17.46528 -1.2475,29.94048 h -384.2362 q 2.4951,41.16816 16.2178,71.10864 13.7227,28.69296 36.1781,47.40576 22.4553,18.7128 49.9008,28.69296 27.4454,8.73264 57.3859,8.73264 26.1979,0 49.9008,-4.99008 24.9504,-4.99008 46.1582,-17.46528 22.4554,-12.4752 42.4157,-32.43552 l 72.3562,69.86112 q -27.4455,32.43552 -62.376,54.89088 -33.6831,21.20784 -73.6037,29.94048 -38.6731,9.98016 -81.0888,9.98016 z m -150.9499,-371.76096 h 247.0089 q 0,-29.94048 -8.7326,-53.64337 -7.4851,-23.70288 -22.4554,-39.92064 -14.9702,-16.21776 -37.4256,-23.70288 -21.2078,-8.73264 -49.9008,-8.73264 -23.7028,0 -46.1582,7.48512 -21.2078,6.2376 -38.6731,22.45536 -17.4653,16.21776 -28.693,39.92064 -11.2277,23.70289 -14.9702,56.13841 z"
         style="font-style:normal;font-variant:normal;font-weight:bold;font-stretch:normal;font-family:Inconsolata;-inkscape-font-specification:'Inconsolata Bold';stroke-width:7.5"
         id="path2959" />
    </g>
  </g>
</svg>
